<svg width="202" height="131" viewBox="0 0 202 131" fill="none" xmlns="http://www.w3.org/2000/svg">
<path d="M17.8068 65.3784C17.8068 65.3784 24.15 49.5983 82.5474 38.5987C99.4168 35.4213 116.163 36.2002 131.45 38.9148C144.948 41.3116 157.307 45.2176 167.609 49.2417C186.029 56.4374 197.87 64.011 197.87 64.011C197.87 64.011 188.297 73.0071 171.497 81.4738C162.581 85.9672 151.629 90.3115 138.993 93.0829C127.314 95.644 114.197 96.8618 99.9175 95.6121C41.0725 90.4626 17.8068 65.3784 17.8068 65.3784Z" fill="#347E20"/>
<path d="M17.8068 65.3784C17.8068 65.3784 24.15 49.5983 82.5474 38.5987M17.8068 65.3784C17.8068 65.3784 41.0725 90.4626 99.9175 95.6121M17.8068 65.3784L62.8225 65.0366M197.87 64.011L152.854 64.3528M197.87 64.011C197.87 64.011 186.029 56.4374 167.609 49.2417M197.87 64.011C197.87 64.011 188.297 73.0071 171.497 81.4738M82.5474 38.5987L62.8225 65.0366M82.5474 38.5987C99.4168 35.4213 116.163 36.2002 131.45 38.9148M99.9175 95.6121L62.8225 65.0366M99.9175 95.6121C114.197 96.8618 127.314 95.644 138.993 93.0829M107.838 64.6947L152.854 64.3528M107.838 64.6947L62.8225 65.0366M107.838 64.6947L131.45 38.9148M107.838 64.6947L138.993 93.0829M152.854 64.3528L167.609 49.2417M152.854 64.3528L171.497 81.4738M131.45 38.9148C144.948 41.3116 157.307 45.2176 167.609 49.2417M138.993 93.0829C151.629 90.3115 162.581 85.9672 171.497 81.4738" stroke="#519440" stroke-width="4"/>
<path d="M2.11486 66.7845C2.11486 66.7845 3.78849 49.8597 56.7743 22.9571C72.0805 15.1856 88.3758 11.2469 103.812 9.57496C117.441 8.09875 130.399 8.38977 141.416 9.37023C161.114 11.1234 174.6 15.0809 174.6 15.0809C174.6 15.0809 167.928 26.3965 154.168 39.2264C146.866 46.0354 137.568 53.271 126.212 59.468C115.717 65.195 103.464 70.0349 89.4057 72.8314C31.4708 84.3554 2.11486 66.7845 2.11486 66.7845Z" fill="url(#paint0_linear_61_2)"/>
<path d="M2.11486 66.7845C2.11486 66.7845 3.78849 49.8597 56.7743 22.9571M2.11486 66.7845C2.11486 66.7845 31.4708 84.3554 89.4057 72.8314M2.11486 66.7845L45.2362 53.8586M174.6 15.0809L131.479 28.0068M174.6 15.0809C174.6 15.0809 161.114 11.1234 141.416 9.37023M174.6 15.0809C174.6 15.0809 167.928 26.3965 154.168 39.2264M56.7743 22.9571L45.2362 53.8586M56.7743 22.9571C72.0805 15.1856 88.3758 11.2469 103.812 9.57496M89.4057 72.8314L45.2362 53.8586M89.4057 72.8314C103.464 70.0349 115.717 65.195 126.212 59.468M88.3576 40.9327L131.479 28.0068M88.3576 40.9327L45.2362 53.8586M88.3576 40.9327L103.812 9.57496M88.3576 40.9327L126.212 59.468M131.479 28.0068L141.416 9.37023M131.479 28.0068L154.168 39.2264M103.812 9.57496C117.441 8.09875 130.399 8.38977 141.416 9.37023M126.212 59.468C137.568 53.271 146.866 46.0354 154.168 39.2264" stroke="#519440" stroke-width="4"/>
<defs>
<linearGradient id="paint0_linear_61_2" x1="90.7898" y1="5.82228" x2="85.6874" y2="79.4793" gradientUnits="userSpaceOnUse">
<stop stop-color="#309F12"/>
<stop offset="1" stop-color="#2A7415"/>
</linearGradient>
</defs>
</svg>
